# xmcd
#
# Track frame offsets: 
#        150
#        32950
#        61454
#        89277
#        116616
#        147898
#        175965
#        207457
#        232973
#        259629
#        286812
#        317074
#
# Disc length: 4562 seconds
#
# Revision: 0
# Processed by: cddbd v1.5.2PL0 Copyright (c) Steve Scherf et al.
# Submitted via: ExactAudioCopy v1.0b3
#
DISCID=ac11d00c
DTITLE=Various Artist - D.Trance Vol. 60 - CD 4
DYEAR=1900
DGENRE=
TTITLE0=Pariah and DJ Wreka - Time Of Angels (Original Mix)
TTITLE1=Liquid Raver - One The Dance Floor
TTITLE2=Core Creator - Voices From The Sky
TTITLE3=Matty D - What's Your Style
TTITLE4=Core Creator - Generate Power
TTITLE5=DJ Scott - New Age (Original Version)
TTITLE6=Core Creator - The Lord
TTITLE7=De-Vote - To The House Beat
TTITLE8=Bum Rush - Nova 4 (Klubb Stomper Remix)
TTITLE9=Klubb Stomper - The Cooler (Bum Rush Remix)
TTITLE10=Bum Rush - Progressive Zone (Original Mix)
TTITLE11=Wragg and Log:One - The Danger
EXTD=
EXTT0=
EXTT1=
EXTT2=
EXTT3=
EXTT4=
EXTT5=
EXTT6=
EXTT7=
EXTT8=
EXTT9=
EXTT10=
EXTT11=
PLAYORDER=
